<?xml version="1.0" standalone="no"?>
<!DOCTYPE svg PUBLIC "-//W3C//DTD SVG 20010904//EN"
 "http://www.w3.org/TR/2001/REC-SVG-20010904/DTD/svg10.dtd">
<svg version="1.0" xmlns="http://www.w3.org/2000/svg"
 width="341.000000pt" height="341.000000pt" viewBox="0 0 341.000000 341.000000"
 preserveAspectRatio="xMidYMid meet">
<metadata>
Created by potrace 1.10, written by Peter Selinger 2001-2011
</metadata>
<g transform="translate(0.000000,341.000000) scale(0.100000,-0.100000)"
fill="#FFFFFF" stroke="none">
<path d="M1170 3154 c0 -9 29 -71 65 -139 36 -67 65 -125 65 -128 0 -3 -31
-28 -68 -56 -76 -56 -142 -123 -189 -191 -72 -106 -130 -258 -135 -356 l-3
-49 128 0 c70 0 428 1 797 3 l670 2 0 33 c0 90 -79 288 -153 384 -54 70 -146
159 -204 198 -24 15 -43 34 -43 42 0 8 17 45 39 81 62 107 92 172 85 183 -11
18 -47 -25 -110 -130 -32 -55 -64 -102 -70 -105 -7 -2 -47 7 -90 22 -73 24
-92 26 -254 26 -170 0 -177 -1 -262 -31 l-88 -31 -49 87 c-83 145 -131 201
-131 155z"/>
<path d="M568 2190 c-20 -11 -49 -36 -65 -56 -25 -34 -28 -46 -34 -158 -10
-162 -10 -470 0 -636 9 -157 20 -187 84 -225 51 -29 131 -34 176 -11 37 20 89
79 98 114 14 47 9 821 -5 869 -29 100 -160 152 -254 103z"/>
<path d="M2670 2188 c-57 -30 -82 -65 -91 -130 -10 -71 -10 -760 0 -821 10
-58 35 -95 87 -124 71 -41 155 -27 227 37 l37 32 0 447 0 448 -23 43 c-44 83
-148 113 -237 68z"/>
<path d="M902 1568 c4 -441 9 -621 17 -643 31 -77 100 -114 213 -115 l76 0 4
-224 3 -224 30 -43 c43 -61 86 -81 161 -77 48 3 69 10 96 30 63 48 68 70 68
317 l0 221 118 0 119 0 6 -236 c7 -264 3 -250 85 -304 77 -51 171 -40 234 27
44 46 48 71 48 299 l0 214 76 0 c100 0 147 15 200 64 l43 41 7 633 7 632 -808
0 -808 0 5 -612z"/>
</g>
</svg>
