<?xml version="1.0" standalone="no"?>
<!DOCTYPE svg PUBLIC "-//W3C//DTD SVG 20010904//EN"
 "http://www.w3.org/TR/2001/REC-SVG-20010904/DTD/svg10.dtd">
<svg version="1.0" xmlns="http://www.w3.org/2000/svg"
 width="256.000000pt" height="256.000000pt" viewBox="0 0 256.000000 256.000000"
 preserveAspectRatio="xMidYMid meet">
<metadata>
Created by potrace 1.10, written by Peter Selinger 2001-2011
</metadata>
<g transform="translate(0.000000,256.000000) scale(0.100000,-0.100000)"
fill="#FFFFFF" stroke="none">
<path d="M1015 2470 c-403 -34 -714 -142 -811 -281 -27 -39 -29 -49 -27 -124
1 -86 19 -144 55 -182 11 -12 26 -19 33 -17 7 3 145 -30 306 -74 162 -44 344
-92 405 -108 l112 -28 -5 -76 c-2 -41 -15 -253 -28 -470 l-23 -395 22 -18 c56
-47 252 -171 351 -222 104 -54 112 -57 165 -52 30 3 63 8 73 12 27 11 20 -10
-8 -23 -70 -32 -159 -8 -316 83 -145 85 -166 95 -154 74 5 -8 5 -11 -1 -6 -5
5 -9 14 -9 20 0 5 -6 12 -14 15 -9 3 -11 0 -6 -9 5 -8 4 -11 -1 -6 -5 5 -9 14
-9 20 0 7 -8 11 -18 11 -9 -1 -15 2 -12 6 6 9 -43 44 -65 47 -8 1 -145 45
-303 98 -159 53 -290 95 -293 93 -5 -5 60 -399 75 -455 35 -130 209 -240 462
-294 137 -29 418 -32 550 -6 185 37 317 96 406 182 52 51 64 69 78 120 16 55
22 64 81 108 70 52 88 61 152 77 35 9 46 18 57 44 8 18 11 43 8 54 -4 15 4 33
27 58 17 20 36 47 41 61 14 39 10 368 -6 443 -8 36 -12 49 -9 30 3 -19 7 -128
11 -241 4 -164 3 -211 -8 -231 -25 -46 -74 -93 -122 -117 -47 -22 -49 -22 -62
-5 -17 22 -19 38 -5 29 6 -3 10 -1 10 4 0 6 6 11 13 11 6 0 23 9 37 20 16 12
29 15 36 9 18 -15 72 36 84 79 15 54 12 292 -5 402 -15 102 -40 193 -86 308
-32 79 -32 108 -8 236 9 43 22 72 45 100 59 69 73 216 29 292 -76 130 -369
242 -740 284 -132 15 -443 20 -570 10z m630 -254 c205 -35 396 -110 475 -185
46 -43 49 -56 19 -72 -16 -8 -20 -8 -14 1 4 7 -8 28 -31 51 -33 33 -57 46
-161 79 -67 22 -136 40 -152 40 -34 0 -83 -19 -76 -30 9 -14 -20 -28 -115 -59
-136 -43 -165 -49 -255 -56 -102 -9 -210 7 -341 50 -119 39 -144 51 -144 70 0
18 -41 29 -78 22 -58 -12 -254 -68 -286 -81 -19 -8 -42 -27 -52 -42 l-18 -27
39 -34 c37 -32 38 -34 10 -22 -47 21 -105 58 -105 68 0 19 87 83 155 116 123
59 278 98 495 124 114 14 528 6 635 -13z m255 -355 c-21 -13 -187 -47 -300
-62 -137 -19 -568 -16 -685 4 l-90 16 71 -5 c121 -8 476 -5 621 6 143 11 364
38 372 46 2 2 9 4 15 4 6 0 4 -5 -4 -9z m377 -510 c24 -86 27 -118 31 -311 4
-209 3 -216 -18 -243 -20 -25 -23 -26 -43 -12 -34 24 -70 18 -121 -21 -26 -20
-50 -33 -53 -30 -5 5 120 742 134 791 7 25 33 -40 70 -174z m-152 -685 c12
-12 8 -18 -28 -42 -23 -16 -44 -31 -47 -34 -13 -13 -60 -40 -60 -33 0 3 -10
-3 -22 -14 -13 -12 -41 -26 -62 -32 -36 -9 -41 -8 -55 12 -9 12 -16 26 -16 30
0 12 125 78 135 72 5 -3 10 -1 12 4 3 10 93 48 116 50 7 1 20 -5 27 -13z"/>
<path d="M500 1681 c0 -16 14 -55 30 -86 17 -32 29 -59 28 -59 -74 -43 -102
-94 -103 -186 0 -89 47 -188 111 -233 39 -27 44 -35 44 -69 0 -36 -1 -37 -25
-28 -23 9 -25 7 -25 -15 0 -18 7 -28 24 -35 18 -7 22 -14 19 -33 -4 -18 1 -28
15 -36 23 -12 32 -6 32 25 0 21 3 22 25 14 23 -9 25 -7 25 15 0 18 -8 28 -25
35 -20 8 -25 16 -25 45 0 32 2 35 30 35 96 0 170 108 156 225 -8 56 -46 143
-75 169 -19 18 -19 19 14 51 38 38 55 92 34 106 -22 13 -26 11 -33 -17 -4 -14
-19 -37 -33 -50 -65 -60 -169 -1 -192 110 -4 17 -15 32 -29 37 -20 7 -22 5
-22 -20z m200 -225 c101 -67 121 -255 34 -313 -98 -64 -234 51 -234 197 0 129
97 185 200 116z"/>
</g>
</svg>
