<?xml version="1.0" standalone="no"?>
<!DOCTYPE svg PUBLIC "-//W3C//DTD SVG 20010904//EN"
 "http://www.w3.org/TR/2001/REC-SVG-20010904/DTD/svg10.dtd">
<svg version="1.0" xmlns="http://www.w3.org/2000/svg"
 width="341.000000pt" height="341.000000pt" viewBox="0 0 341.000000 341.000000"
 preserveAspectRatio="xMidYMid meet">
<metadata>
Created by potrace 1.10, written by Peter Selinger 2001-2011
</metadata>
<g transform="translate(0.000000,341.000000) scale(0.100000,-0.100000)"
fill="#FFFFFF" stroke="none">
<path d="M1825 2953 c-144 -30 -273 -119 -342 -235 -59 -98 -75 -184 -80 -440
l-5 -228 -154 0 -154 0 0 -215 0 -215 155 0 155 0 0 -593 0 -594 107 -6 c58
-4 159 -7 225 -7 l118 0 0 600 0 600 224 0 c143 0 227 4 231 10 4 6 9 103 12
215 l6 205 -104 0 c-57 0 -162 3 -233 7 l-128 6 4 191 c6 295 9 298 273 304
113 3 172 8 177 16 12 17 9 355 -2 377 -10 18 -23 19 -213 18 -138 0 -224 -5
-272 -16z"/>
</g>
</svg>
