<?xml version="1.0" standalone="no"?>
<!DOCTYPE svg PUBLIC "-//W3C//DTD SVG 20010904//EN"
 "http://www.w3.org/TR/2001/REC-SVG-20010904/DTD/svg10.dtd">
<svg version="1.0" xmlns="http://www.w3.org/2000/svg"
 width="200.000000pt" height="200.000000pt" viewBox="0 0 200.000000 200.000000"
 preserveAspectRatio="xMidYMid meet">
<metadata>
Created by potrace 1.10, written by Peter Selinger 2001-2011
</metadata>
<g transform="translate(0.000000,200.000000) scale(0.100000,-0.100000)"
fill="#FFFFFF" stroke="none">
<path d="M1535 1749 c-99 -138 -209 -286 -243 -331 l-64 -80 -92 91 c-87 85
-96 91 -135 91 -34 0 -49 -7 -84 -40 l-43 -39 -18 30 c-26 44 -124 112 -190
133 -82 26 -202 19 -278 -16 -99 -46 -193 -154 -228 -260 -13 -41 -13 -41
-107 -39 l-53 2 0 -646 0 -645 1000 0 1000 0 0 644 0 643 -65 -1 c-36 0 -65 2
-65 6 0 3 30 33 66 66 64 58 65 60 62 104 l-3 45 -490 -413 c-269 -227 -497
-413 -505 -413 -8 -1 -87 57 -175 127 -89 71 -167 131 -175 135 -9 3 -5 6 11
6 56 2 179 114 179 164 0 11 27 -18 68 -72 37 -50 73 -93 81 -96 8 -3 22 2 32
12 21 22 759 1032 759 1038 0 3 -15 5 -32 4 -31 0 -42 -13 -213 -250z m-985
-234 c7 -8 21 -15 30 -15 37 0 50 -10 38 -30 -16 -25 7 -53 38 -46 24 6 37
-12 24 -34 -11 -17 6 -50 25 -50 7 0 17 -9 20 -21 9 -28 -4 -135 -21 -167 -8
-15 -14 -32 -14 -38 0 -16 -37 -47 -48 -40 -20 12 -42 -6 -42 -35 0 -23 -6
-32 -27 -40 -14 -5 -33 -7 -41 -4 -8 3 -23 -2 -33 -11 -15 -14 -21 -14 -34 -4
-8 7 -24 10 -34 7 -11 -3 -28 1 -38 8 -15 11 -16 15 -3 31 13 16 13 17 -2 11
-10 -3 -20 -1 -24 5 -4 7 -9 6 -14 -2 -9 -15 -52 38 -76 96 -23 52 -23 166 -1
218 24 55 94 135 125 142 15 4 33 11 40 17 9 7 21 6 39 -4 23 -12 27 -12 37 4
13 21 20 21 36 2z"/>
</g>
</svg>
