<?xml version="1.0" standalone="no"?>
<!DOCTYPE svg PUBLIC "-//W3C//DTD SVG 20010904//EN"
 "http://www.w3.org/TR/2001/REC-SVG-20010904/DTD/svg10.dtd">
<svg version="1.0" xmlns="http://www.w3.org/2000/svg"
 width="341.000000pt" height="341.000000pt" viewBox="0 0 341.000000 341.000000"
 preserveAspectRatio="xMidYMid meet">
<metadata>
Created by potrace 1.10, written by Peter Selinger 2001-2011
</metadata>
<g transform="translate(0.000000,341.000000) scale(0.100000,-0.100000)"
fill="#FFFFFF" stroke="none">
<path d="M1235 2550 c-152 -12 -233 -50 -331 -152 -107 -111 -147 -226 -125
-359 32 -195 171 -315 387 -335 l71 -7 6 -78 c4 -60 11 -90 31 -123 14 -25 26
-46 26 -49 0 -2 -37 -7 -83 -10 -252 -20 -467 -129 -537 -274 -20 -39 -24 -64
-24 -138 -1 -81 2 -95 29 -143 35 -65 77 -102 156 -142 100 -51 166 -63 344
-63 186 -1 245 11 375 75 168 82 260 213 268 378 7 153 -16 190 -256 410 -83
77 -92 89 -92 120 0 45 13 64 125 180 50 52 99 112 109 133 30 65 41 149 29
227 -14 86 -41 145 -99 209 -24 27 -44 51 -44 54 0 2 27 7 60 10 62 7 151 39
170 62 8 9 -4 14 -51 19 -78 8 -425 5 -544 -4z m84 -99 c82 -42 155 -156 192
-300 23 -90 24 -141 4 -209 -45 -152 -220 -208 -352 -113 -134 97 -209 374
-141 522 15 32 40 67 60 82 64 50 161 57 237 18z m62 -1090 c67 -15 228 -155
260 -226 23 -49 24 -133 3 -183 -45 -108 -173 -172 -344 -172 -292 0 -477 165
-419 373 28 101 164 183 343 206 85 12 115 12 157 2z"/>
<path d="M2460 2375 l0 -165 -165 0 -165 0 0 -60 0 -60 165 0 165 0 2 -167 3
-168 60 0 60 0 3 168 2 167 165 0 165 0 0 60 0 60 -165 0 -165 0 0 165 0 165
-65 0 -65 0 0 -165z"/>
</g>
</svg>
