<?xml version="1.0" standalone="no"?>
<!DOCTYPE svg PUBLIC "-//W3C//DTD SVG 20010904//EN"
 "http://www.w3.org/TR/2001/REC-SVG-20010904/DTD/svg10.dtd">
<svg version="1.0" xmlns="http://www.w3.org/2000/svg"
 width="341.000000pt" height="341.000000pt" viewBox="0 0 341.000000 341.000000"
 preserveAspectRatio="xMidYMid meet">
<metadata>
Created by potrace 1.10, written by Peter Selinger 2001-2011
</metadata>
<g transform="translate(0.000000,341.000000) scale(0.100000,-0.100000)"
fill="#FFFFFF" stroke="none">
<path d="M1445 2930 c-370 -84 -683 -326 -854 -660 -100 -196 -130 -325 -131
-565 0 -183 9 -250 50 -379 61 -189 168 -360 322 -515 109 -109 205 -177 342
-242 145 -68 256 -98 406 -109 258 -20 454 13 658 110 141 68 225 125 330 228
197 192 334 443 374 685 16 96 15 354 -1 447 -25 142 -113 350 -204 485 -53
77 -183 213 -276 287 -134 107 -384 214 -554 237 -125 17 -368 12 -462 -9z
m505 -274 c359 -94 637 -381 716 -737 20 -92 24 -297 6 -357 -20 -67 -68 -113
-124 -119 -85 -10 -140 18 -243 121 -50 50 -124 133 -163 185 -162 214 -406
457 -550 548 -70 45 -253 126 -311 138 l-34 7 7 -33 c3 -19 9 -115 12 -214 8
-206 -5 -300 -57 -413 -109 -242 -369 -367 -458 -221 -57 94 -20 392 71 574
119 237 333 423 578 504 177 58 372 64 550 17z"/>
</g>
</svg>
