<?xml version="1.0" standalone="no"?>
<!DOCTYPE svg PUBLIC "-//W3C//DTD SVG 20010904//EN"
 "http://www.w3.org/TR/2001/REC-SVG-20010904/DTD/svg10.dtd">
<svg version="1.0" xmlns="http://www.w3.org/2000/svg"
 width="341.000000pt" height="341.000000pt" viewBox="0 0 341.000000 341.000000"
 preserveAspectRatio="xMidYMid meet">
<metadata>
Created by potrace 1.10, written by Peter Selinger 2001-2011
</metadata>
<g transform="translate(0.000000,341.000000) scale(0.100000,-0.100000)"
fill="#FFFFFF" stroke="none">
<path d="M955 2400 c-74 -10 -184 -51 -247 -91 -186 -120 -292 -389 -275 -697
17 -300 159 -512 392 -585 62 -20 91 -22 260 -22 183 1 193 2 265 29 76 28
195 89 204 105 7 11 -71 221 -87 238 -9 9 -28 1 -84 -37 -112 -75 -169 -94
-293 -94 -97 -1 -109 1 -152 26 -124 73 -198 233 -198 428 0 202 84 375 212
441 82 42 234 36 331 -13 58 -29 121 -98 155 -169 17 -35 65 -165 107 -288
105 -311 157 -408 268 -507 62 -54 186 -116 281 -139 150 -36 432 -37 570 0
86 23 191 81 235 132 65 74 76 104 79 235 3 108 2 122 -21 171 -29 63 -86 130
-140 164 -58 37 -129 61 -310 109 -93 24 -181 53 -198 65 -57 41 -75 117 -43
185 46 97 242 124 342 48 20 -16 44 -48 56 -76 18 -43 23 -48 51 -48 31 0 173
16 232 25 l31 6 -14 62 c-28 117 -101 203 -222 260 -66 31 -70 32 -237 35
-109 3 -190 0 -225 -8 -127 -28 -248 -117 -291 -215 -47 -107 -45 -295 6 -381
55 -94 139 -140 371 -203 191 -52 233 -67 262 -94 52 -48 67 -120 37 -176 -51
-99 -352 -119 -530 -35 -58 26 -157 130 -187 194 -14 30 -51 127 -82 215 -128
365 -169 448 -265 544 -67 67 -178 125 -277 146 -87 18 -290 26 -369 15z"/>
</g>
</svg>
