<?xml version="1.0" standalone="no"?>
<!DOCTYPE svg PUBLIC "-//W3C//DTD SVG 20010904//EN"
 "http://www.w3.org/TR/2001/REC-SVG-20010904/DTD/svg10.dtd">
<svg version="1.0" xmlns="http://www.w3.org/2000/svg"
 width="341.000000pt" height="341.000000pt" viewBox="0 0 341.000000 341.000000"
 preserveAspectRatio="xMidYMid meet">
<metadata>
Created by potrace 1.10, written by Peter Selinger 2001-2011
</metadata>
<g transform="translate(0.000000,341.000000) scale(0.100000,-0.100000)"
fill="#FFFFFF" stroke="none">
<path d="M625 2950 c-73 -29 -120 -72 -155 -144 -46 -94 -43 -216 9 -299 57
-92 147 -140 257 -140 177 1 304 128 304 303 0 115 -52 201 -164 270 -55 34
-179 39 -251 10z"/>
<path d="M2218 2155 c-108 -22 -191 -69 -290 -163 l-88 -84 0 111 0 111 -255
0 -255 0 0 -857 0 -856 261 6 c144 3 263 8 266 10 2 3 7 236 10 518 l6 514 32
65 c18 36 45 78 59 93 60 65 203 94 308 63 44 -13 65 -26 97 -63 71 -80 71
-84 81 -666 5 -286 11 -521 13 -523 3 -3 123 -8 267 -11 l262 -6 -6 524 c-8
607 -16 742 -52 849 -62 184 -180 299 -364 354 -77 23 -267 29 -352 11z"/>
<path d="M480 1275 l0 -855 260 0 260 0 0 855 0 855 -260 0 -260 0 0 -855z"/>
</g>
</svg>
