<?xml version="1.0" standalone="no"?>
<!DOCTYPE svg PUBLIC "-//W3C//DTD SVG 20010904//EN"
 "http://www.w3.org/TR/2001/REC-SVG-20010904/DTD/svg10.dtd">
<svg version="1.0" xmlns="http://www.w3.org/2000/svg"
 width="233.000000pt" height="233.000000pt" viewBox="0 0 233.000000 233.000000"
 preserveAspectRatio="xMidYMid meet">
<metadata>
Created by potrace 1.10, written by Peter Selinger 2001-2011
</metadata>
<g transform="translate(0.000000,233.000000) scale(0.100000,-0.100000)"
fill="#FFFFFF" stroke="none">
<path d="M871 2035 c10 -32 28 -126 39 -209 11 -83 23 -164 27 -180 5 -27 4
-29 -18 -23 -225 61 -434 42 -699 -62 -139 -55 -141 -56 -110 -78 57 -40 119
-106 226 -239 62 -77 139 -165 172 -195 101 -94 237 -174 350 -205 l59 -17 17
-61 c37 -129 112 -242 212 -314 56 -41 64 -51 64 -79 0 -37 6 -40 38 -17 20
14 29 14 104 -5 46 -12 114 -21 156 -21 66 0 78 -3 120 -32 26 -18 57 -43 69
-56 11 -13 24 -19 27 -13 3 5 11 42 17 83 12 72 13 75 53 98 23 13 59 38 82
57 27 22 52 33 73 33 17 0 77 7 134 15 56 9 115 15 131 13 15 -2 29 -1 29 2 4
15 -69 125 -117 178 l-56 60 11 83 c9 68 17 90 40 116 40 46 79 116 106 190
23 65 57 232 48 241 -2 3 -19 -3 -38 -11 -19 -9 -80 -28 -136 -42 -57 -15
-114 -31 -128 -36 -22 -8 -24 -7 -18 12 4 11 7 69 7 127 -1 170 -54 307 -186
477 -91 115 -89 114 -109 51 -9 -30 -41 -106 -72 -170 -30 -65 -55 -121 -55
-127 0 -20 -16 -7 -40 34 -43 72 -178 198 -264 246 -81 46 -268 115 -343 127
l-41 6 19 -57z m721 -1022 c35 -34 38 -41 38 -93 0 -52 -3 -59 -39 -94 -32
-32 -47 -38 -86 -41 -44 -2 -52 1 -92 38 -41 38 -43 42 -43 95 0 51 3 60 37
94 34 35 42 38 92 38 50 0 59 -3 93 -37z"/>
</g>
</svg>
