<?xml version="1.0" standalone="no"?>
<!DOCTYPE svg PUBLIC "-//W3C//DTD SVG 20010904//EN"
 "http://www.w3.org/TR/2001/REC-SVG-20010904/DTD/svg10.dtd">
<svg version="1.0" xmlns="http://www.w3.org/2000/svg"
 width="467.000000pt" height="415.000000pt" viewBox="0 0 467.000000 415.000000"
 preserveAspectRatio="xMidYMid meet">
<metadata>
Created by potrace 1.10, written by Peter Selinger 2001-2011
</metadata>
<g transform="translate(0.000000,415.000000) scale(0.100000,-0.100000)"
fill="#FFFFFF" stroke="none">
<path d="M2086 3449 c-84 -9 -218 -33 -277 -49 -36 -10 -36 -10 -42 -78 -4
-37 -7 -124 -7 -194 l0 -128 -200 0 -200 0 0 -1160 0 -1160 920 0 920 0 0
1160 0 1160 -200 0 -200 0 0 193 0 194 -37 11 c-170 50 -473 73 -677 51z m390
-193 c62 -7 117 -17 123 -20 7 -5 11 -48 11 -122 l0 -114 -327 2 -328 3 -3 95
c-4 129 -1 137 50 145 151 26 318 30 474 11z"/>
<path d="M765 2989 c-16 -4 -47 -23 -69 -40 -76 -63 -71 9 -73 -1079 -2 -671
0 -992 8 -1028 8 -38 21 -66 47 -94 60 -66 68 -68 292 -68 l200 0 0 1160 0
1160 -187 -1 c-104 0 -201 -5 -218 -10z"/>
<path d="M3396 2993 c-8 -8 -7 -2261 1 -2292 6 -22 7 -22 207 -19 201 3 201 3
242 31 22 15 51 46 65 70 l24 42 3 980 c2 709 -1 994 -9 1035 -16 76 -72 133
-147 149 -57 12 -374 15 -386 4z"/>
</g>
</svg>
