<?xml version="1.0" standalone="no"?>
<!DOCTYPE svg PUBLIC "-//W3C//DTD SVG 20010904//EN"
 "http://www.w3.org/TR/2001/REC-SVG-20010904/DTD/svg10.dtd">
<svg version="1.0" xmlns="http://www.w3.org/2000/svg"
 width="341.000000pt" height="341.000000pt" viewBox="0 0 341.000000 341.000000"
 preserveAspectRatio="xMidYMid meet">
<metadata>
Created by potrace 1.10, written by Peter Selinger 2001-2011
</metadata>
<g transform="translate(0.000000,341.000000) scale(0.100000,-0.100000)"
fill="#000000" stroke="none">
<path d="M2265 2964 c-16 -8 -47 -32 -67 -52 l-38 -36 -162 37 c-90 21 -168
37 -174 37 -7 0 -39 -78 -73 -172 -34 -95 -66 -185 -72 -199 -9 -24 -19 -27
-136 -47 -113 -20 -226 -53 -365 -108 -45 -18 -49 -18 -95 -1 -89 32 -174 14
-237 -49 -78 -79 -77 -210 5 -299 11 -13 21 -48 28 -100 12 -97 30 -151 70
-209 48 -69 151 -157 240 -204 44 -24 81 -46 81 -49 0 -3 -27 -32 -60 -64 -75
-74 -106 -123 -126 -202 -41 -156 30 -306 198 -424 67 -47 78 -59 78 -83 0
-26 -4 -30 -37 -35 -67 -11 -124 -36 -158 -70 -37 -38 -68 -118 -63 -167 3
-31 5 -33 53 -40 68 -9 510 -9 845 -1 l272 6 -5 70 c-8 112 -65 174 -181 196
-26 5 -52 13 -57 18 -19 19 9 59 82 119 134 109 189 207 189 332 0 95 -47 192
-135 278 l-64 63 79 42 c207 110 313 248 327 424 5 59 11 76 36 104 40 47 57
91 57 148 -1 156 -154 255 -300 192 l-48 -21 -79 37 c-90 42 -212 79 -331 99
-46 8 -85 16 -87 17 -4 5 94 302 103 311 7 7 128 -19 230 -48 47 -14 55 -20
77 -63 62 -123 189 -154 275 -68 95 95 74 223 -45 278 -49 23 -91 24 -130 3z
m114 -79 c50 -25 57 -94 15 -144 -21 -25 -33 -31 -66 -31 -74 0 -119 73 -87
144 20 44 85 59 138 31z m-488 -440 c402 -70 631 -338 509 -597 -56 -119 -191
-222 -374 -283 -96 -32 -310 -48 -476 -35 -177 13 -342 81 -461 188 -123 111
-161 223 -124 361 47 180 270 329 555 374 65 11 295 6 371 -8z m-201 -996 c85
0 194 6 243 14 l87 14 0 -46 c0 -109 -21 -395 -36 -496 -31 -214 -97 -361
-184 -407 -43 -22 -155 -25 -205 -3 -98 40 -164 184 -195 420 -9 67 -29 417
-30 506 l0 26 83 -15 c47 -8 148 -14 237 -13z m-384 -299 c8 -139 13 -258 11
-264 -7 -18 -117 102 -139 152 -31 70 -35 164 -9 233 24 63 98 156 113 141 5
-5 16 -123 24 -262z m894 133 c28 -74 27 -182 -1 -240 -22 -45 -99 -137 -129
-153 -16 -9 -17 -6 -10 28 4 20 13 109 19 197 6 88 14 191 17 228 l6 69 39
-38 c23 -22 48 -61 59 -91z m-799 -675 c9 -7 32 -34 53 -59 36 -46 36 -47 14
-53 -13 -3 -85 -6 -160 -6 l-137 0 9 31 c13 44 37 79 63 89 34 13 141 12 158
-2z m733 2 c31 -11 68 -80 56 -101 -7 -11 -38 -14 -144 -14 -74 0 -137 3 -141
6 -3 4 13 32 36 63 l42 56 63 0 c34 0 74 -4 88 -10z"/>
<path d="M1373 2201 c-42 -26 -65 -62 -66 -104 -2 -77 44 -127 124 -135 46 -4
51 -2 89 36 34 34 40 46 40 82 0 102 -106 171 -187 121z"/>
<path d="M1884 2176 c-35 -34 -44 -51 -44 -77 0 -101 130 -176 204 -118 82 65
70 175 -25 224 -51 27 -87 19 -135 -29z"/>
<path d="M1402 1788 c-75 -75 193 -172 384 -139 127 22 243 91 213 127 -16 19
-21 18 -101 -17 -129 -56 -338 -51 -431 12 -48 33 -49 33 -65 17z"/>
</g>
</svg>
