<?xml version="1.0" standalone="no"?>
<!DOCTYPE svg PUBLIC "-//W3C//DTD SVG 20010904//EN"
 "http://www.w3.org/TR/2001/REC-SVG-20010904/DTD/svg10.dtd">
<svg version="1.0" xmlns="http://www.w3.org/2000/svg"
 width="256.000000pt" height="256.000000pt" viewBox="0 0 256.000000 256.000000"
 preserveAspectRatio="xMidYMid meet">
<metadata>
Created by potrace 1.10, written by Peter Selinger 2001-2011
</metadata>
<g transform="translate(0.000000,256.000000) scale(0.100000,-0.100000)"
fill="#FFFFFF" stroke="none">
<path d="M530 1410 l0 -920 750 0 750 0 0 798 0 797 -123 123 -122 122 -628 0
-627 0 0 -920z m670 655 l0 -25 -250 0 -250 0 0 25 0 25 250 0 250 0 0 -25z
m560 -240 l0 -265 -250 0 -250 0 0 265 0 265 250 0 250 0 0 -265z m-560 130
l0 -25 -250 0 -250 0 0 25 0 25 250 0 250 0 0 -25z m0 -125 l0 -30 -250 0
-250 0 0 30 0 30 250 0 250 0 0 -30z m0 -125 l0 -25 -250 0 -250 0 0 25 0 25
250 0 250 0 0 -25z m0 -130 l0 -25 -250 0 -250 0 0 25 0 25 250 0 250 0 0 -25z
m560 -120 l0 -25 -530 0 -530 0 0 25 0 25 530 0 530 0 0 -25z m0 -120 l0 -25
-530 0 -530 0 0 25 0 25 530 0 530 0 0 -25z m0 -130 l0 -25 -530 0 -530 0 0
25 0 25 530 0 530 0 0 -25z m0 -120 l0 -25 -530 0 -530 0 0 25 0 25 530 0 530
0 0 -25z m0 -130 l0 -25 -530 0 -530 0 0 25 0 25 530 0 530 0 0 -25z m0 -120
l0 -25 -530 0 -530 0 0 25 0 25 530 0 530 0 0 -25z m0 -120 l0 -25 -530 0
-530 0 0 25 0 25 530 0 530 0 0 -25z"/>
<path d="M530 305 l0 -75 750 0 750 0 0 75 0 75 -750 0 -750 0 0 -75z"/>
</g>
</svg>
