<?xml version="1.0" standalone="no"?>
<!DOCTYPE svg PUBLIC "-//W3C//DTD SVG 20010904//EN"
 "http://www.w3.org/TR/2001/REC-SVG-20010904/DTD/svg10.dtd">
<svg version="1.0" xmlns="http://www.w3.org/2000/svg"
 width="341.000000pt" height="341.000000pt" viewBox="0 0 341.000000 341.000000"
 preserveAspectRatio="xMidYMid meet">
<metadata>
Created by potrace 1.10, written by Peter Selinger 2001-2011
</metadata>
<g transform="translate(0.000000,341.000000) scale(0.100000,-0.100000)"
fill="#FFFFFF" stroke="none">
<path d="M970 2965 c-198 -56 -384 -211 -471 -392 -47 -99 -60 -150 -66 -270
-7 -130 5 -203 49 -313 28 -71 30 -86 38 -275 11 -255 29 -337 111 -514 50
-107 130 -228 209 -313 147 -161 379 -296 600 -348 25 -6 137 -15 250 -19 197
-9 208 -10 285 -41 310 -124 639 -47 839 196 176 214 218 465 120 732 -35 94
-36 103 -45 297 -11 251 -32 349 -111 509 -143 292 -414 527 -716 620 -130 41
-180 48 -377 53 -154 5 -197 9 -225 23 -19 10 -66 28 -105 40 -94 29 -304 37
-385 15z m974 -534 c98 -26 170 -67 230 -131 111 -118 121 -251 23 -310 -36
-22 -93 -26 -131 -9 -14 7 -54 53 -90 104 -72 102 -104 130 -173 151 -58 18
-196 17 -246 0 -61 -22 -113 -64 -138 -112 l-24 -44 25 -48 c21 -40 35 -52 97
-83 43 -21 139 -53 235 -78 357 -93 472 -153 541 -280 54 -97 55 -248 3 -365
-51 -115 -180 -213 -331 -251 -151 -38 -372 -43 -502 -9 -204 52 -369 218
-381 383 -4 57 -1 70 18 94 33 42 76 60 127 54 55 -6 90 -38 145 -130 92 -158
170 -208 324 -208 138 0 242 45 294 128 35 55 38 98 10 152 -43 85 -103 113
-403 191 -255 65 -361 119 -426 216 -105 159 -69 371 84 497 60 49 162 88 283
107 93 15 316 4 406 -19z"/>
</g>
</svg>
