<?xml version="1.0" standalone="no"?>
<!DOCTYPE svg PUBLIC "-//W3C//DTD SVG 20010904//EN"
 "http://www.w3.org/TR/2001/REC-SVG-20010904/DTD/svg10.dtd">
<svg version="1.0" xmlns="http://www.w3.org/2000/svg"
 width="341.000000pt" height="341.000000pt" viewBox="0 0 341.000000 341.000000"
 preserveAspectRatio="xMidYMid meet">
<metadata>
Created by potrace 1.10, written by Peter Selinger 2001-2011
</metadata>
<g transform="translate(0.000000,341.000000) scale(0.100000,-0.100000)"
fill="#FFFFFF" stroke="none">
<path d="M1463 2960 c-386 -84 -724 -344 -896 -687 -63 -126 -115 -293 -128
-415 -13 -119 -6 -322 15 -418 32 -149 104 -314 198 -455 49 -73 211 -255 228
-255 4 0 29 28 56 61 63 79 177 177 279 240 299 185 694 208 1012 59 111 -52
178 -98 294 -201 l97 -88 58 67 c157 184 254 398 300 662 50 289 -45 670 -229
915 -69 92 -219 239 -313 307 -142 102 -329 182 -486 208 -35 6 -137 13 -228
15 -140 4 -179 2 -257 -15z m632 -674 c121 -22 282 -62 383 -96 130 -44 167
-93 127 -171 -30 -57 -62 -56 -255 6 -221 71 -283 79 -605 79 -328 1 -362 -3
-607 -78 -213 -65 -202 -64 -243 -23 -60 60 -45 117 40 160 78 39 360 111 550
141 71 11 522 -3 610 -18z m-28 -425 c126 -24 326 -82 384 -112 43 -22 58 -56
40 -95 -15 -33 -45 -31 -171 11 -56 19 -151 47 -209 62 -102 27 -115 28 -361
28 -291 0 -334 -6 -559 -81 -151 -49 -171 -52 -195 -25 -30 34 -17 71 34 98
90 46 284 101 455 129 123 20 441 12 582 -15z m-148 -331 c170 -18 386 -83
438 -132 29 -27 32 -83 4 -97 -20 -11 -41 -7 -185 40 -185 61 -356 82 -534 68
-133 -10 -189 -22 -344 -70 -72 -23 -142 -39 -160 -37 -32 3 -33 5 -33 48 0
41 3 46 35 62 45 22 196 72 280 93 126 32 329 42 499 25z"/>
<path d="M1619 765 c-31 -8 -82 -25 -114 -39 -102 -46 -262 -178 -252 -209 4
-16 111 -51 217 -73 119 -24 439 -15 552 15 86 22 248 89 248 101 0 5 -26 31
-57 59 -67 59 -192 124 -278 146 -73 18 -239 18 -316 0z"/>
</g>
</svg>
