<?xml version="1.0" standalone="no"?>
<!DOCTYPE svg PUBLIC "-//W3C//DTD SVG 20010904//EN"
 "http://www.w3.org/TR/2001/REC-SVG-20010904/DTD/svg10.dtd">
<svg version="1.0" xmlns="http://www.w3.org/2000/svg"
 width="200.000000pt" height="200.000000pt" viewBox="0 0 200.000000 200.000000"
 preserveAspectRatio="xMidYMid meet">
<metadata>
Created by potrace 1.10, written by Peter Selinger 2001-2011
</metadata>
<g transform="translate(0.000000,200.000000) scale(0.100000,-0.100000)"
fill="#FFFFFF" stroke="none">
<path d="M865 1510 c-63 -31 -108 -74 -140 -131 l-29 -54 -7 -270 c-3 -148 -9
-278 -14 -288 -17 -39 -73 -49 -105 -17 -18 18 -20 33 -20 130 l0 111 -122 -3
-123 -3 -3 -59 c-4 -86 14 -219 37 -263 28 -56 96 -122 149 -146 66 -30 188
-30 253 0 57 25 120 87 151 145 21 41 23 57 28 315 5 270 5 272 29 297 49 52
98 23 112 -66 5 -28 17 -60 27 -71 28 -27 89 -32 157 -12 l57 16 -4 82 c-6
109 -34 172 -105 237 -63 58 -99 70 -208 70 -60 0 -90 -5 -120 -20z"/>
<path d="M1463 980 c-22 -9 -23 -15 -23 -102 0 -133 -28 -172 -98 -142 l-32
13 0 115 0 116 -32 -8 c-18 -4 -72 -7 -120 -7 l-87 1 -7 -44 c-10 -67 5 -201
27 -249 32 -67 102 -137 161 -163 61 -27 161 -32 221 -11 57 20 128 82 167
147 l35 58 3 143 4 143 -99 -1 c-54 0 -108 -4 -120 -9z"/>
</g>
</svg>
