<?xml version="1.0" standalone="no"?>
<!DOCTYPE svg PUBLIC "-//W3C//DTD SVG 20010904//EN"
 "http://www.w3.org/TR/2001/REC-SVG-20010904/DTD/svg10.dtd">
<svg version="1.0" xmlns="http://www.w3.org/2000/svg"
 width="256.000000pt" height="256.000000pt" viewBox="0 0 256.000000 256.000000"
 preserveAspectRatio="xMidYMid meet">
<metadata>
Created by potrace 1.10, written by Peter Selinger 2001-2011
</metadata>
<g transform="translate(0.000000,256.000000) scale(0.100000,-0.100000)"
fill="#FFFFFF" stroke="none">
<path d="M1684 2100 c-32 -16 -60 -30 -62 -30 -2 0 0 10 3 21 l7 22 -30 -22
c-117 -83 -265 -310 -327 -501 -9 -30 -21 -59 -25 -64 -5 -4 -37 16 -72 46
-34 29 -100 75 -146 101 -133 77 -471 224 -600 262 -19 6 -22 3 -22 -23 0 -56
32 -123 85 -180 29 -32 65 -64 79 -71 14 -8 26 -17 26 -21 0 -4 -25 -10 -56
-13 -31 -3 -61 -10 -65 -14 -17 -17 13 -86 57 -133 39 -42 83 -68 179 -105 16
-6 12 -9 -23 -16 -49 -9 -112 -45 -112 -63 0 -19 77 -92 116 -111 19 -9 63
-21 97 -27 34 -7 63 -13 65 -14 2 -1 -13 -17 -33 -36 -78 -71 -21 -168 100
-168 19 0 35 -5 35 -10 0 -16 -119 -100 -185 -131 -95 -45 -167 -59 -298 -59
-160 0 -232 23 -397 129 -50 32 92 -119 169 -179 186 -146 356 -220 586 -255
429 -64 855 68 1149 359 130 128 197 231 242 371 l22 70 74 6 c40 4 87 12 103
18 34 14 105 61 105 70 0 3 -35 7 -78 8 -95 3 -164 15 -169 29 -2 6 25 16 59
23 74 14 154 56 177 91 15 23 15 24 -4 16 -33 -15 -197 -19 -241 -7 -39 10
-42 14 -48 54 -13 87 -105 240 -186 309 -81 70 -197 118 -287 118 -24 0 -43 4
-43 8 0 5 31 16 69 26 80 21 131 49 131 72 0 15 -9 16 -63 11 -34 -3 -71 -9
-82 -13 -19 -7 -18 -5 3 18 12 13 22 27 22 31 0 16 -51 5 -106 -23z"/>
</g>
</svg>
