<?xml version="1.0" standalone="no"?>
<!DOCTYPE svg PUBLIC "-//W3C//DTD SVG 20010904//EN"
 "http://www.w3.org/TR/2001/REC-SVG-20010904/DTD/svg10.dtd">
<svg version="1.0" xmlns="http://www.w3.org/2000/svg"
 width="374.000000pt" height="368.000000pt" viewBox="0 0 374.000000 368.000000"
 preserveAspectRatio="xMidYMid meet">
<metadata>
Created by potrace 1.10, written by Peter Selinger 2001-2011
</metadata>
<g transform="translate(0.000000,368.000000) scale(0.100000,-0.100000)"
fill="#FFFFFF" stroke="none">
<path d="M3400 3574 c-172 -25 -610 -87 -1055 -149 -143 -20 -321 -44 -395
-55 -74 -10 -161 -22 -193 -25 l-57 -7 2 -699 3 -700 630 1 c347 0 775 3 953
7 l322 6 0 824 0 823 -22 -1 c-13 -1 -97 -12 -188 -25z"/>
<path d="M1215 3269 c-589 -85 -1052 -149 -1078 -149 l-27 0 0 -601 0 -602 53
7 c28 3 350 6 715 6 l662 0 0 690 0 690 -27 -1 c-16 -1 -149 -19 -298 -40z"/>
<path d="M112 1180 l3 -595 60 -8 c114 -15 770 -106 840 -117 165 -24 496 -70
510 -70 13 0 15 86 15 685 0 539 -3 687 -12 690 -7 3 -329 6 -716 7 l-702 3 2
-595z"/>
<path d="M1710 1762 c-7 -3 -10 -247 -10 -702 l0 -697 53 -7 c28 -4 212 -29
407 -56 195 -27 533 -74 750 -105 217 -30 458 -64 535 -75 77 -11 146 -20 153
-20 9 0 12 171 12 824 l0 824 -472 6 c-552 8 -1414 12 -1428 8z"/>
</g>
</svg>
