<?xml version="1.0" standalone="no"?>
<!DOCTYPE svg PUBLIC "-//W3C//DTD SVG 20010904//EN"
 "http://www.w3.org/TR/2001/REC-SVG-20010904/DTD/svg10.dtd">
<svg version="1.0" xmlns="http://www.w3.org/2000/svg"
 width="256.000000pt" height="256.000000pt" viewBox="0 0 256.000000 256.000000"
 preserveAspectRatio="xMidYMid meet">
<metadata>
Created by potrace 1.10, written by Peter Selinger 2001-2011
</metadata>
<g transform="translate(0.000000,256.000000) scale(0.100000,-0.100000)"
fill="#FFFFFF" stroke="none">
<path d="M1164 2519 c-551 -49 -1012 -472 -1110 -1019 -20 -111 -20 -329 0
-440 85 -473 451 -869 911 -985 213 -54 420 -54 628 0 468 121 823 505 912
984 9 49 15 139 15 221 0 82 -6 172 -15 221 -118 634 -699 1076 -1341 1018z
m374 -199 c155 -41 282 -103 405 -198 l57 -45 -50 -17 c-61 -21 -96 -51 -121
-105 -36 -78 -20 -146 69 -298 78 -132 102 -206 102 -315 0 -95 -6 -123 -96
-422 -88 -291 -85 -283 -94 -273 -4 4 -92 259 -196 566 -153 458 -185 560
-173 568 8 5 34 9 59 9 47 0 90 21 90 44 0 7 -8 20 -17 28 -15 13 -39 14 -153
7 -126 -8 -337 -4 -422 6 -37 5 -68 -13 -68 -38 1 -29 21 -41 85 -48 36 -3 67
-8 69 -10 2 -2 40 -105 85 -229 l81 -225 -116 -348 c-64 -192 -120 -345 -124
-340 -4 4 -93 263 -198 574 -185 549 -190 567 -169 573 12 3 39 6 60 6 51 0
77 15 77 45 0 23 -32 51 -48 42 -4 -3 -82 -8 -174 -12 -131 -5 -168 -4 -168 6
0 20 77 113 153 186 156 148 346 244 566 283 87 16 338 5 429 -20z m732 -630
c49 -118 71 -221 77 -365 13 -321 -100 -604 -330 -821 -77 -73 -183 -151 -193
-142 -4 5 94 296 328 967 50 144 68 238 68 359 0 61 3 93 10 86 5 -5 23 -43
40 -84z m-1952 -7 c5 -16 118 -327 252 -691 133 -365 239 -666 237 -669 -18
-17 -198 111 -294 210 -119 123 -189 235 -247 395 -75 209 -75 488 0 704 15
43 31 78 35 78 4 0 11 -12 17 -27z m1150 -951 c89 -246 162 -452 162 -458 0
-12 -92 -39 -185 -54 -92 -15 -289 -11 -380 8 -75 16 -80 19 -78 42 2 31 303
910 312 910 3 0 79 -202 169 -448z"/>
</g>
</svg>
