<?xml version="1.0" standalone="no"?>
<!DOCTYPE svg PUBLIC "-//W3C//DTD SVG 20010904//EN"
 "http://www.w3.org/TR/2001/REC-SVG-20010904/DTD/svg10.dtd">
<svg version="1.0" xmlns="http://www.w3.org/2000/svg"
 width="341.000000pt" height="341.000000pt" viewBox="0 0 341.000000 341.000000"
 preserveAspectRatio="xMidYMid meet">
<metadata>
Created by potrace 1.10, written by Peter Selinger 2001-2011
</metadata>
<g transform="translate(0.000000,341.000000) scale(0.100000,-0.100000)"
fill="#FFFFFF" stroke="none">
<path d="M970 2561 c-273 -11 -333 -31 -394 -135 -72 -123 -103 -295 -112
-631 -14 -473 46 -790 166 -886 80 -64 68 -63 1005 -67 556 -2 882 0 941 7
165 19 211 47 271 165 69 137 93 309 93 680 0 454 -38 656 -146 776 -43 47
-92 67 -204 80 -104 13 -1349 21 -1620 11z m723 -558 c417 -269 450 -292 435
-310 -28 -35 -655 -440 -664 -430 -9 9 -9 851 0 865 4 7 10 12 13 12 3 0 100
-62 216 -137z"/>
</g>
</svg>
